<svg class="spotify-icon" viewBox="0 0 168 168" xmlns="http://www.w3.org/2000/svg">
    <path d="M84,0A84,84,0,1,0,168,84,84,84,0,0,0,84,0Zm38.3,121.2a6.34,6.34,0,0,1-8.7,2.1c-23.8-14.6-53.8-17.9-89.1-9.9a6.34,6.34,0,1,1-2.8-12.4c39.2-9,73.3-5.2,100.2,11a6.38,6.38,0,0,1,2.4,8.7Zm11.3-23.7a7.9,7.9,0,0,1-10.8,2.6c-27.2-16.7-68.6-21.5-100.6-11.8a7.89,7.89,0,0,1-4.5-15.1c37.2-11,83.2-6,115.5,13.4a7.94,7.94,0,0,1,2.4,11.9Zm1.4-24.5C108.6,54.3,59.4,53.5,32.2,61a9.5,9.5,0,1,1-5.4-18.3c32.4-9.5,88-8.4,125.5,14.7a9.5,9.5,0,0,1-9.9,16.6Z" fill="white"/>
  </svg>